<?xml version="1.0" encoding="UTF-8"?><svg xmlns="http://www.w3.org/2000/svg" xmlns:xlink="http://www.w3.org/1999/xlink" fill-opacity="1" color-rendering="auto" color-interpolation="auto" text-rendering="auto" stroke="black" stroke-linecap="square" width="662" stroke-miterlimit="10" shape-rendering="auto" stroke-opacity="1" fill="black" stroke-dasharray="none" font-weight="normal" stroke-width="1" height="284" font-family="'Dialog'" font-style="normal" stroke-linejoin="miter" font-size="12px" stroke-dashoffset="0" image-rendering="auto">
  <!--Generated by ySVG 2.5-->
  <defs id="genericDefs"/>
  <g>
    <defs id="defs1">
      <linearGradient x1="110" gradientUnits="userSpaceOnUse" x2="160" y1="147" y2="147" id="linearGradient1" spreadMethod="reflect">
        <stop stop-opacity="1" stop-color="white" offset="0%"/>
        <stop stop-opacity="1" stop-color="rgb(153,204,255)" offset="100%"/>
      </linearGradient>
      <linearGradient x1="501" gradientUnits="userSpaceOnUse" x2="551" y1="147" y2="147" id="linearGradient2" spreadMethod="reflect">
        <stop stop-opacity="1" stop-color="white" offset="0%"/>
        <stop stop-opacity="1" stop-color="rgb(153,204,255)" offset="100%"/>
      </linearGradient>
      <clipPath clipPathUnits="userSpaceOnUse" id="clipPath1">
        <path d="M0 0 L662 0 L662 284 L0 284 L0 0 Z"/>
      </clipPath>
      <clipPath clipPathUnits="userSpaceOnUse" id="clipPath2">
        <path d="M70 132 L732 132 L732 416 L70 416 L70 132 Z"/>
      </clipPath>
    </defs>
    <g fill="url(#linearGradient1)" text-rendering="geometricPrecision" shape-rendering="geometricPrecision" transform="matrix(1,0,0,1,-70,-132)" stroke="url(#linearGradient1)">
      <rect x="85" width="75" height="254" y="147" clip-path="url(#clipPath2)" stroke="none"/>
    </g>
    <g text-rendering="geometricPrecision" stroke-miterlimit="1.45" shape-rendering="geometricPrecision" transform="matrix(1,0,0,1,-70,-132)" stroke-linecap="butt">
      <rect fill="none" x="85" width="75" height="254" y="147" clip-path="url(#clipPath2)"/>
      <text x="105.5605" xml:space="preserve" y="264.1855" clip-path="url(#clipPath2)" font-family="sans-serif" stroke="none">DHCP</text>
      <text x="102.8242" xml:space="preserve" y="278.1543" clip-path="url(#clipPath2)" font-family="sans-serif" stroke="none">Server</text>
      <text x="102.6631" xml:space="preserve" y="292.123" clip-path="url(#clipPath2)" font-family="sans-serif" stroke="none">Switch</text>
    </g>
    <g fill="rgb(255,204,0)" text-rendering="geometricPrecision" shape-rendering="geometricPrecision" transform="matrix(1,0,0,1,-70,-132)" stroke="rgb(255,204,0)">
      <rect x="326" y="203" clip-path="url(#clipPath2)" width="30" rx="4" ry="4" height="30" stroke="none"/>
    </g>
    <g text-rendering="geometricPrecision" stroke-miterlimit="1.45" shape-rendering="geometricPrecision" transform="matrix(1,0,0,1,-70,-132)" stroke-linecap="butt">
      <rect x="326" y="203" clip-path="url(#clipPath2)" fill="none" width="30" rx="4" ry="4" height="30"/>
      <text x="362" xml:space="preserve" y="222.1543" clip-path="url(#clipPath2)" font-family="sans-serif" stroke="none">10.42.55.3</text>
    </g>
    <g fill="rgb(255,204,0)" text-rendering="geometricPrecision" shape-rendering="geometricPrecision" transform="matrix(1,0,0,1,-70,-132)" stroke="rgb(255,204,0)">
      <rect x="326" y="248" clip-path="url(#clipPath2)" width="30" rx="4" ry="4" height="30" stroke="none"/>
    </g>
    <g text-rendering="geometricPrecision" stroke-miterlimit="1.45" shape-rendering="geometricPrecision" transform="matrix(1,0,0,1,-70,-132)" stroke-linecap="butt">
      <rect x="326" y="248" clip-path="url(#clipPath2)" fill="none" width="30" rx="4" ry="4" height="30"/>
    </g>
    <g fill="url(#linearGradient2)" text-rendering="geometricPrecision" shape-rendering="geometricPrecision" transform="matrix(1,0,0,1,-70,-132)" stroke="url(#linearGradient2)">
      <rect x="476" width="75" height="254" y="147" clip-path="url(#clipPath2)" stroke="none"/>
    </g>
    <g text-rendering="geometricPrecision" stroke-miterlimit="1.45" shape-rendering="geometricPrecision" transform="matrix(1,0,0,1,-70,-132)" stroke-linecap="butt">
      <rect fill="none" x="476" width="75" height="254" y="147" clip-path="url(#clipPath2)"/>
      <text x="491.0469" xml:space="preserve" y="271.1699" clip-path="url(#clipPath2)" font-family="sans-serif" stroke="none">Layer 2</text>
      <text x="493.6631" xml:space="preserve" y="285.1387" clip-path="url(#clipPath2)" font-family="sans-serif" stroke="none">Switch</text>
    </g>
    <g fill="rgb(255,204,0)" text-rendering="geometricPrecision" shape-rendering="geometricPrecision" transform="matrix(1,0,0,1,-70,-132)" stroke="rgb(255,204,0)">
      <rect x="326" y="293" clip-path="url(#clipPath2)" width="30" rx="4" ry="4" height="30" stroke="none"/>
    </g>
    <g text-rendering="geometricPrecision" stroke-miterlimit="1.45" shape-rendering="geometricPrecision" transform="matrix(1,0,0,1,-70,-132)" stroke-linecap="butt">
      <rect x="326" y="293" clip-path="url(#clipPath2)" fill="none" width="30" rx="4" ry="4" height="30"/>
    </g>
    <g fill="rgb(255,204,0)" text-rendering="geometricPrecision" shape-rendering="geometricPrecision" transform="matrix(1,0,0,1,-70,-132)" stroke="rgb(255,204,0)">
      <rect x="606" y="199" clip-path="url(#clipPath2)" width="30" rx="4" ry="4" height="30" stroke="none"/>
    </g>
    <g text-rendering="geometricPrecision" stroke-miterlimit="1.45" shape-rendering="geometricPrecision" transform="matrix(1,0,0,1,-70,-132)" stroke-linecap="butt">
      <rect x="606" y="199" clip-path="url(#clipPath2)" fill="none" width="30" rx="4" ry="4" height="30"/>
    </g>
    <g fill="rgb(255,204,0)" text-rendering="geometricPrecision" shape-rendering="geometricPrecision" transform="matrix(1,0,0,1,-70,-132)" stroke="rgb(255,204,0)">
      <rect x="606" y="259" clip-path="url(#clipPath2)" width="30" rx="4" ry="4" height="30" stroke="none"/>
    </g>
    <g text-rendering="geometricPrecision" stroke-miterlimit="1.45" shape-rendering="geometricPrecision" transform="matrix(1,0,0,1,-70,-132)" stroke-linecap="butt">
      <rect x="606" y="259" clip-path="url(#clipPath2)" fill="none" width="30" rx="4" ry="4" height="30"/>
      <text x="642" xml:space="preserve" y="278.1543" clip-path="url(#clipPath2)" font-family="sans-serif" stroke="none">10.42.1.100</text>
    </g>
    <g fill="rgb(255,204,0)" text-rendering="geometricPrecision" shape-rendering="geometricPrecision" transform="matrix(1,0,0,1,-70,-132)" stroke="rgb(255,204,0)">
      <rect x="606" y="319" clip-path="url(#clipPath2)" width="30" rx="4" ry="4" height="30" stroke="none"/>
    </g>
    <g text-rendering="geometricPrecision" stroke-miterlimit="1.45" shape-rendering="geometricPrecision" transform="matrix(1,0,0,1,-70,-132)" stroke-linecap="butt">
      <rect x="606" y="319" clip-path="url(#clipPath2)" fill="none" width="30" rx="4" ry="4" height="30"/>
    </g>
    <g fill="rgb(255,204,0)" text-rendering="geometricPrecision" shape-rendering="geometricPrecision" transform="matrix(1,0,0,1,-70,-132)" stroke="rgb(255,204,0)">
      <rect x="325" y="338" clip-path="url(#clipPath2)" width="30" rx="4" ry="4" height="30" stroke="none"/>
    </g>
    <g text-rendering="geometricPrecision" stroke-miterlimit="1.45" shape-rendering="geometricPrecision" transform="matrix(1,0,0,1,-70,-132)" stroke-linecap="butt">
      <rect x="325" y="338" clip-path="url(#clipPath2)" fill="none" width="30" rx="4" ry="4" height="30"/>
      <path fill="none" d="M160.0208 218 L318.0215 218" clip-path="url(#clipPath2)"/>
      <path d="M326.0215 218 L314.0215 213 L317.0215 218 L314.0215 223 Z" clip-path="url(#clipPath2)" stroke="none"/>
      <text x="172.125" xml:space="preserve" y="211.1699" clip-path="url(#clipPath2)" font-family="sans-serif" stroke="none">Fa 1/2</text>
      <path fill="none" d="M160.0078 263 L318.0204 263" clip-path="url(#clipPath2)"/>
      <path d="M326.0204 263 L314.0204 258 L317.0204 263 L314.0204 268 Z" clip-path="url(#clipPath2)" stroke="none"/>
      <text x="172.125" xml:space="preserve" y="256.1699" clip-path="url(#clipPath2)" font-family="sans-serif" stroke="none">Fa 1/3</text>
      <path fill="none" d="M160.0077 174.8647 L467.9766 174.8647" clip-path="url(#clipPath2)"/>
      <path d="M475.9766 174.8647 L463.9766 169.8647 L466.9766 174.8647 L463.9766 179.8647 Z" clip-path="url(#clipPath2)" stroke="none"/>
      <text x="172.125" xml:space="preserve" y="168.0346" clip-path="url(#clipPath2)" font-family="sans-serif" stroke="none">Fa 1/1</text>
      <path fill="none" d="M160.0208 308 L318.0215 308" clip-path="url(#clipPath2)"/>
      <path d="M326.0215 308 L314.0215 303 L317.0215 308 L314.0215 313 Z" clip-path="url(#clipPath2)" stroke="none"/>
      <text x="172.125" xml:space="preserve" y="301.1699" clip-path="url(#clipPath2)" font-family="sans-serif" stroke="none">Fa 1/4</text>
      <path fill="none" d="M551.0107 214 L597.9974 214" clip-path="url(#clipPath2)"/>
      <path d="M605.9974 214 L593.9974 209 L596.9974 214 L593.9974 219 Z" clip-path="url(#clipPath2)" stroke="none"/>
      <path fill="none" d="M551 274 L597.9951 274" clip-path="url(#clipPath2)"/>
      <path d="M605.9951 274 L593.9951 269 L596.9951 274 L593.9951 279 Z" clip-path="url(#clipPath2)" stroke="none"/>
      <path fill="none" d="M551.0107 334 L597.9974 334" clip-path="url(#clipPath2)"/>
      <path d="M605.9974 334 L593.9974 329 L596.9974 334 L593.9974 339 Z" clip-path="url(#clipPath2)" stroke="none"/>
      <path fill="none" d="M160.0078 353 L317.0153 353" clip-path="url(#clipPath2)"/>
      <path d="M325.0153 353 L313.0153 348 L316.0153 353 L313.0153 358 Z" clip-path="url(#clipPath2)" stroke="none"/>
      <text x="172.125" xml:space="preserve" y="346.1699" clip-path="url(#clipPath2)" font-family="sans-serif" stroke="none">Fa 1/5</text>
    </g>
  </g>
</svg>
