<?xml version="1.0" encoding="UTF-8"?><svg xmlns="http://www.w3.org/2000/svg" xmlns:xlink="http://www.w3.org/1999/xlink" fill-opacity="1" color-rendering="auto" color-interpolation="auto" text-rendering="auto" stroke="black" stroke-linecap="square" width="684" stroke-miterlimit="10" shape-rendering="auto" stroke-opacity="1" fill="black" stroke-dasharray="none" font-weight="normal" stroke-width="1" height="452" font-family="'Dialog'" font-style="normal" stroke-linejoin="miter" font-size="12px" stroke-dashoffset="0" image-rendering="auto">
  <!--Generated by ySVG 2.5-->
  <defs id="genericDefs"/>
  <g>
    <defs id="defs1">
      <linearGradient x1="564.2" gradientUnits="userSpaceOnUse" x2="727.52" y1="234.48" y2="312.88" id="linearGradient1" spreadMethod="reflect">
        <stop stop-opacity="1" stop-color="white" offset="0%"/>
        <stop stop-opacity="1" stop-color="rgb(204,153,255)" offset="100%"/>
      </linearGradient>
      <linearGradient x1="564.2" gradientUnits="userSpaceOnUse" x2="721.8" y1="228.6" y2="307" id="linearGradient2" spreadMethod="reflect">
        <stop stop-opacity="1" stop-color="white" offset="0%"/>
        <stop stop-opacity="1" stop-color="rgb(204,153,255)" offset="100%"/>
      </linearGradient>
      <linearGradient x1="359.5" gradientUnits="userSpaceOnUse" x2="439.5" y1="501" y2="541" id="linearGradient3" spreadMethod="reflect">
        <stop stop-opacity="1" stop-color="white" offset="0%"/>
        <stop stop-opacity="1" stop-color="rgb(183,201,227)" offset="100%"/>
      </linearGradient>
      <linearGradient x1="595.25" gradientUnits="userSpaceOnUse" x2="675.25" y1="501" y2="541" id="linearGradient4" spreadMethod="reflect">
        <stop stop-opacity="1" stop-color="white" offset="0%"/>
        <stop stop-opacity="1" stop-color="rgb(183,201,227)" offset="100%"/>
      </linearGradient>
      <linearGradient x1="359.5" gradientUnits="userSpaceOnUse" x2="439.5" y1="405" y2="445" id="linearGradient5" spreadMethod="reflect">
        <stop stop-opacity="1" stop-color="white" offset="0%"/>
        <stop stop-opacity="1" stop-color="rgb(255,102,102)" offset="100%"/>
      </linearGradient>
      <linearGradient x1="485.25" gradientUnits="userSpaceOnUse" x2="565.25" y1="405" y2="445" id="linearGradient6" spreadMethod="reflect">
        <stop stop-opacity="1" stop-color="white" offset="0%"/>
        <stop stop-opacity="1" stop-color="rgb(255,102,102)" offset="100%"/>
      </linearGradient>
      <linearGradient x1="595.25" gradientUnits="userSpaceOnUse" x2="675.25" y1="405" y2="445" id="linearGradient7" spreadMethod="reflect">
        <stop stop-opacity="1" stop-color="white" offset="0%"/>
        <stop stop-opacity="1" stop-color="rgb(255,102,102)" offset="100%"/>
      </linearGradient>
      <linearGradient x1="705.25" gradientUnits="userSpaceOnUse" x2="785.25" y1="405" y2="445" id="linearGradient8" spreadMethod="reflect">
        <stop stop-opacity="1" stop-color="white" offset="0%"/>
        <stop stop-opacity="1" stop-color="rgb(255,102,102)" offset="100%"/>
      </linearGradient>
      <linearGradient x1="328.7" gradientUnits="userSpaceOnUse" x2="470.3" y1="228.6" y2="307" id="linearGradient9" spreadMethod="reflect">
        <stop stop-opacity="1" stop-color="white" offset="0%"/>
        <stop stop-opacity="1" stop-color="rgb(153,255,153)" offset="100%"/>
      </linearGradient>
      <linearGradient x1="477.375" gradientUnits="userSpaceOnUse" x2="557.375" y1="501" y2="541" id="linearGradient10" spreadMethod="reflect">
        <stop stop-opacity="1" stop-color="white" offset="0%"/>
        <stop stop-opacity="1" stop-color="rgb(183,201,227)" offset="100%"/>
      </linearGradient>
      <linearGradient x1="557.36" gradientUnits="userSpaceOnUse" x2="714.96" y1="221.68" y2="300.08" id="linearGradient11" spreadMethod="reflect">
        <stop stop-opacity="1" stop-color="white" offset="0%"/>
        <stop stop-opacity="1" stop-color="rgb(204,153,255)" offset="100%"/>
      </linearGradient>
      <linearGradient x1="242.8" gradientUnits="userSpaceOnUse" x2="691" y1="603" y2="643" id="linearGradient12" spreadMethod="reflect">
        <stop stop-opacity="1" stop-color="silver" offset="0%"/>
        <stop stop-opacity="1" stop-color="gray" offset="100%"/>
      </linearGradient>
      <linearGradient x1="242.8" gradientUnits="userSpaceOnUse" x2="322.8" y1="405" y2="445" id="linearGradient13" spreadMethod="reflect">
        <stop stop-opacity="1" stop-color="white" offset="0%"/>
        <stop stop-opacity="1" stop-color="rgb(255,102,102)" offset="100%"/>
      </linearGradient>
      <linearGradient x1="242.8" gradientUnits="userSpaceOnUse" x2="322.8" y1="501" y2="541" id="linearGradient14" spreadMethod="reflect">
        <stop stop-opacity="1" stop-color="white" offset="0%"/>
        <stop stop-opacity="1" stop-color="rgb(183,201,227)" offset="100%"/>
      </linearGradient>
      <clipPath clipPathUnits="userSpaceOnUse" id="clipPath1">
        <path d="M0 0 L684 0 L684 452 L0 452 L0 0 Z"/>
      </clipPath>
      <clipPath clipPathUnits="userSpaceOnUse" id="clipPath2">
        <path d="M209 206 L893 206 L893 658 L209 658 L209 206 Z"/>
      </clipPath>
      <clipPath clipPathUnits="userSpaceOnUse" id="clipPath3">
        <path d="M191.6676 -161.9494 L191.6676 522.0506 L-260.3324 522.0506 L-260.3324 -161.9494 L191.6676 -161.9494 Z"/>
      </clipPath>
    </defs>
    <g fill="white" text-rendering="geometricPrecision" shape-rendering="geometricPrecision" transform="translate(-209,-206)" stroke="white">
      <rect x="209" width="684" height="452" y="206" clip-path="url(#clipPath2)" stroke="none"/>
    </g>
    <g fill="url(#linearGradient1)" text-rendering="geometricPrecision" shape-rendering="geometricPrecision" transform="matrix(1,0,0,1,-209,-206)" stroke="url(#linearGradient1)">
      <path d="M564.2 234.48 L727.52 234.48 L727.52 312.88 L564.2 312.88 Z" stroke="none" clip-path="url(#clipPath2)"/>
    </g>
    <g text-rendering="geometricPrecision" stroke-miterlimit="1.45" shape-rendering="geometricPrecision" transform="matrix(1,0,0,1,-209,-206)" stroke-linecap="butt">
      <path fill="none" d="M564.2 234.48 L727.52 234.48 L727.52 312.88 L564.2 312.88 Z" clip-path="url(#clipPath2)"/>
      <text x="582.8336" xml:space="preserve" y="263.6927" clip-path="url(#clipPath2)" font-family="sans-serif" stroke="none">Third-Party applications</text>
      <text x="597.8336" xml:space="preserve" y="278.3939" clip-path="url(#clipPath2)" font-family="sans-serif" stroke="none">used by WebStaX</text>
      <text x="604.5133" xml:space="preserve" y="293.095" clip-path="url(#clipPath2)" font-family="sans-serif" stroke="none">(snmp/http/ssh)</text>
    </g>
    <g fill="url(#linearGradient2)" text-rendering="geometricPrecision" shape-rendering="geometricPrecision" transform="matrix(1,0,0,1,-209,-206)" stroke="url(#linearGradient2)">
      <path d="M564.2 228.6 L721.8 228.6 L721.8 307 L564.2 307 Z" stroke="none" clip-path="url(#clipPath2)"/>
    </g>
    <g text-rendering="geometricPrecision" stroke-miterlimit="1.45" shape-rendering="geometricPrecision" transform="matrix(1,0,0,1,-209,-206)" stroke-linecap="butt">
      <path fill="none" d="M564.2 228.6 L721.8 228.6 L721.8 307 L564.2 307 Z" clip-path="url(#clipPath2)"/>
      <text x="579.9736" xml:space="preserve" y="257.8127" clip-path="url(#clipPath2)" font-family="sans-serif" stroke="none">Third-Party applications</text>
      <text x="594.9736" xml:space="preserve" y="272.5139" clip-path="url(#clipPath2)" font-family="sans-serif" stroke="none">used by WebStaX</text>
      <text x="601.6533" xml:space="preserve" y="287.215" clip-path="url(#clipPath2)" font-family="sans-serif" stroke="none">(snmp/http/ssh)</text>
    </g>
    <g text-rendering="geometricPrecision" shape-rendering="geometricPrecision" transform="matrix(1,0,0,1,-209,-206)">
      <rect x="224" width="654" height="8" y="421" clip-path="url(#clipPath2)" stroke="none"/>
    </g>
    <g text-rendering="geometricPrecision" stroke-miterlimit="1.45" shape-rendering="geometricPrecision" transform="matrix(1,0,0,1,-209,-206)" stroke-linecap="butt">
      <rect fill="none" x="224" width="654" height="8" y="421" clip-path="url(#clipPath2)"/>
    </g>
    <g fill="url(#linearGradient3)" text-rendering="geometricPrecision" shape-rendering="geometricPrecision" transform="matrix(1,0,0,1,-209,-206)" stroke="url(#linearGradient3)">
      <path d="M359.5 501 L439.5 501 L439.5 541 L359.5 541 Z" stroke="none" clip-path="url(#clipPath2)"/>
    </g>
    <g text-rendering="geometricPrecision" stroke-miterlimit="1.45" shape-rendering="geometricPrecision" transform="matrix(1,0,0,1,-209,-206)" stroke-linecap="butt">
      <path fill="none" d="M359.5 501 L439.5 501 L439.5 541 L359.5 541 Z" clip-path="url(#clipPath2)"/>
      <text x="365.6689" font-size="14px" y="517.9238" clip-path="url(#clipPath2)" font-family="sans-serif" stroke="none" xml:space="preserve">FDMA/NIC</text>
      <text x="380.8345" font-size="14px" y="535.0752" clip-path="url(#clipPath2)" font-family="sans-serif" stroke="none" xml:space="preserve">Driver</text>
    </g>
    <g fill="url(#linearGradient4)" text-rendering="geometricPrecision" shape-rendering="geometricPrecision" transform="matrix(1,0,0,1,-209,-206)" stroke="url(#linearGradient4)">
      <path d="M595.25 501 L675.25 501 L675.25 541 L595.25 541 Z" stroke="none" clip-path="url(#clipPath2)"/>
    </g>
    <g text-rendering="geometricPrecision" stroke-miterlimit="1.45" shape-rendering="geometricPrecision" transform="matrix(1,0,0,1,-209,-206)" stroke-linecap="butt">
      <path fill="none" d="M595.25 501 L675.25 501 L675.25 541 L595.25 541 Z" clip-path="url(#clipPath2)"/>
      <text x="598.6982" font-size="14px" y="526.4995" clip-path="url(#clipPath2)" font-family="sans-serif" stroke="none" xml:space="preserve">MUX-Driver</text>
    </g>
    <g fill="url(#linearGradient5)" text-rendering="geometricPrecision" shape-rendering="geometricPrecision" transform="matrix(1,0,0,1,-209,-206)" stroke="url(#linearGradient5)">
      <path d="M369.5 405 L429.5 405 L439.5 425 L429.5 445 L369.5 445 L359.5 425 Z" stroke="none" clip-path="url(#clipPath2)"/>
    </g>
    <g text-rendering="geometricPrecision" stroke-miterlimit="1.45" shape-rendering="geometricPrecision" transform="matrix(1,0,0,1,-209,-206)" stroke-linecap="butt">
      <path fill="none" d="M369.5 405 L429.5 405 L439.5 425 L429.5 445 L369.5 445 L359.5 425 Z" clip-path="url(#clipPath2)"/>
      <text x="377.7104" font-size="14px" y="430.4995" clip-path="url(#clipPath2)" font-family="sans-serif" stroke="none" xml:space="preserve">Eth: ifh</text>
    </g>
    <g fill="url(#linearGradient6)" text-rendering="geometricPrecision" shape-rendering="geometricPrecision" transform="matrix(1,0,0,1,-209,-206)" stroke="url(#linearGradient6)">
      <path d="M495.25 405 L555.25 405 L565.25 425 L555.25 445 L495.25 445 L485.25 425 Z" stroke="none" clip-path="url(#clipPath2)"/>
    </g>
    <g text-rendering="geometricPrecision" stroke-miterlimit="1.45" shape-rendering="geometricPrecision" transform="matrix(1,0,0,1,-209,-206)" stroke-linecap="butt">
      <path fill="none" d="M495.25 405 L555.25 405 L565.25 425 L555.25 445 L495.25 445 L485.25 425 Z" clip-path="url(#clipPath2)"/>
      <text x="494.1191" font-size="14px" y="430.4995" clip-path="url(#clipPath2)" font-family="sans-serif" stroke="none" xml:space="preserve">Eth: vlan1</text>
    </g>
    <g fill="url(#linearGradient7)" text-rendering="geometricPrecision" shape-rendering="geometricPrecision" transform="matrix(1,0,0,1,-209,-206)" stroke="url(#linearGradient7)">
      <path d="M605.25 405 L665.25 405 L675.25 425 L665.25 445 L605.25 445 L595.25 425 Z" stroke="none" clip-path="url(#clipPath2)"/>
    </g>
    <g text-rendering="geometricPrecision" stroke-miterlimit="1.45" shape-rendering="geometricPrecision" transform="matrix(1,0,0,1,-209,-206)" stroke-linecap="butt">
      <path fill="none" d="M605.25 405 L665.25 405 L675.25 425 L665.25 445 L605.25 445 L595.25 425 Z" clip-path="url(#clipPath2)"/>
      <text x="604.1191" font-size="14px" y="430.4995" clip-path="url(#clipPath2)" font-family="sans-serif" stroke="none" xml:space="preserve">Eth: vlan2</text>
    </g>
    <g fill="url(#linearGradient8)" text-rendering="geometricPrecision" shape-rendering="geometricPrecision" transform="matrix(1,0,0,1,-209,-206)" stroke="url(#linearGradient8)">
      <path d="M715.25 405 L775.25 405 L785.25 425 L775.25 445 L715.25 445 L705.25 425 Z" stroke="none" clip-path="url(#clipPath2)"/>
    </g>
    <g text-rendering="geometricPrecision" stroke-miterlimit="1.45" shape-rendering="geometricPrecision" transform="matrix(1,0,0,1,-209,-206)" stroke-linecap="butt">
      <path fill="none" d="M715.25 405 L775.25 405 L785.25 425 L775.25 445 L715.25 445 L705.25 425 Z" clip-path="url(#clipPath2)"/>
      <text x="712.957" font-size="14px" y="430.4995" clip-path="url(#clipPath2)" font-family="sans-serif" stroke="none" xml:space="preserve">Eth: vlanN</text>
    </g>
    <g fill="url(#linearGradient9)" text-rendering="geometricPrecision" shape-rendering="geometricPrecision" transform="matrix(1,0,0,1,-209,-206)" stroke="url(#linearGradient9)">
      <path d="M328.7 228.6 L470.3 228.6 L470.3 307 L328.7 307 Z" stroke="none" clip-path="url(#clipPath2)"/>
    </g>
    <g text-rendering="geometricPrecision" stroke-miterlimit="1.45" shape-rendering="geometricPrecision" transform="matrix(1,0,0,1,-209,-206)" stroke-linecap="butt">
      <path fill="none" d="M328.7 228.6 L470.3 228.6 L470.3 307 L328.7 307 Z" clip-path="url(#clipPath2)"/>
      <text x="369.9312" font-size="14px" y="273.2995" clip-path="url(#clipPath2)" font-family="sans-serif" stroke="none" xml:space="preserve">WebStaX</text>
    </g>
    <g fill="url(#linearGradient10)" text-rendering="geometricPrecision" shape-rendering="geometricPrecision" transform="matrix(1,0,0,1,-209,-206)" stroke="url(#linearGradient10)">
      <path d="M477.375 501 L557.375 501 L557.375 541 L477.375 541 Z" stroke="none" clip-path="url(#clipPath2)"/>
    </g>
    <g text-rendering="geometricPrecision" stroke-miterlimit="1.45" shape-rendering="geometricPrecision" transform="matrix(1,0,0,1,-209,-206)" stroke-linecap="butt">
      <path fill="none" d="M477.375 501 L557.375 501 L557.375 541 L477.375 541 Z" clip-path="url(#clipPath2)"/>
      <text x="483.9336" font-size="14px" y="526.4995" clip-path="url(#clipPath2)" font-family="sans-serif" stroke="none" xml:space="preserve">MUX-Filter</text>
    </g>
    <g fill="url(#linearGradient11)" text-rendering="geometricPrecision" shape-rendering="geometricPrecision" transform="matrix(1,0,0,1,-209,-206)" stroke="url(#linearGradient11)">
      <path d="M557.36 221.68 L714.96 221.68 L714.96 300.08 L557.36 300.08 Z" stroke="none" clip-path="url(#clipPath2)"/>
    </g>
    <g text-rendering="geometricPrecision" stroke-miterlimit="1.45" shape-rendering="geometricPrecision" transform="matrix(1,0,0,1,-209,-206)" stroke-linecap="butt">
      <path fill="none" d="M557.36 221.68 L714.96 221.68 L714.96 300.08 L557.36 300.08 Z" clip-path="url(#clipPath2)"/>
      <text x="562.6292" font-size="14px" y="249.2281" clip-path="url(#clipPath2)" font-family="sans-serif" stroke="none" xml:space="preserve">Third-Party applications</text>
      <text x="580.1292" font-size="14px" y="266.3795" clip-path="url(#clipPath2)" font-family="sans-serif" stroke="none" xml:space="preserve">used by WebStaX</text>
      <text x="587.9222" font-size="14px" y="283.5309" clip-path="url(#clipPath2)" font-family="sans-serif" stroke="none" xml:space="preserve">(snmp/http/ssh)</text>
    </g>
    <g text-rendering="geometricPrecision" shape-rendering="geometricPrecision" transform="matrix(1,0,0,1,-209,-206)">
      <rect x="224" width="654" height="8" y="565" clip-path="url(#clipPath2)" stroke="none"/>
      <rect stroke-linecap="butt" x="224" y="565" clip-path="url(#clipPath2)" fill="none" width="654" height="8" stroke-miterlimit="1.45"/>
    </g>
    <g fill="url(#linearGradient12)" text-rendering="geometricPrecision" shape-rendering="geometricPrecision" transform="matrix(1,0,0,1,-209,-206)" stroke="url(#linearGradient12)">
      <path d="M242.8 603 L691 603 L691 643 L242.8 643 Z" stroke="none" clip-path="url(#clipPath2)"/>
    </g>
    <g text-rendering="geometricPrecision" stroke-miterlimit="1.45" shape-rendering="geometricPrecision" transform="matrix(1,0,0,1,-209,-206)" stroke-linecap="butt">
      <path fill="none" d="M242.8 603 L691 603 L691 643 L242.8 643 Z" clip-path="url(#clipPath2)"/>
      <text x="427.7867" font-size="16px" y="629.2852" clip-path="url(#clipPath2)" font-family="sans-serif" stroke="none" xml:space="preserve">Switch HW</text>
    </g>
    <g fill="url(#linearGradient13)" text-rendering="geometricPrecision" shape-rendering="geometricPrecision" transform="matrix(1,0,0,1,-209,-206)" stroke="url(#linearGradient13)">
      <path d="M252.8 405 L312.8 405 L322.8 425 L312.8 445 L252.8 445 L242.8 425 Z" stroke="none" clip-path="url(#clipPath2)"/>
    </g>
    <g text-rendering="geometricPrecision" stroke-miterlimit="1.45" shape-rendering="geometricPrecision" transform="matrix(1,0,0,1,-209,-206)" stroke-linecap="butt">
      <path fill="none" d="M252.8 405 L312.8 405 L322.8 425 L312.8 445 L252.8 445 L242.8 425 Z" clip-path="url(#clipPath2)"/>
      <text x="258.2829" font-size="14px" y="430.4995" clip-path="url(#clipPath2)" font-family="sans-serif" stroke="none" xml:space="preserve">/dev/uio</text>
    </g>
    <g fill="url(#linearGradient14)" text-rendering="geometricPrecision" shape-rendering="geometricPrecision" transform="matrix(1,0,0,1,-209,-206)" stroke="url(#linearGradient14)">
      <path d="M242.8 501 L322.8 501 L322.8 541 L242.8 541 Z" stroke="none" clip-path="url(#clipPath2)"/>
    </g>
    <g text-rendering="geometricPrecision" stroke-miterlimit="1.45" shape-rendering="geometricPrecision" transform="matrix(1,0,0,1,-209,-206)" stroke-linecap="butt">
      <path fill="none" d="M242.8 501 L322.8 501 L322.8 541 L242.8 541 Z" clip-path="url(#clipPath2)"/>
      <text x="270.3552" font-size="14px" y="517.9238" clip-path="url(#clipPath2)" font-family="sans-serif" stroke="none" xml:space="preserve">UIO</text>
      <text x="264.1345" font-size="14px" y="535.0752" clip-path="url(#clipPath2)" font-family="sans-serif" stroke="none" xml:space="preserve">Driver</text>
    </g>
    <g stroke-linecap="butt" font-size="14px" transform="matrix(1,0,0,1,-209,-206)" fill="red" text-rendering="geometricPrecision" font-family="sans-serif" shape-rendering="geometricPrecision" stroke="red" stroke-miterlimit="1.45">
      <text x="789.6416" xml:space="preserve" y="418.4995" clip-path="url(#clipPath2)" stroke="none">USERSPACE</text>
      <text x="772.5176" xml:space="preserve" y="556.4995" clip-path="url(#clipPath2)" stroke="none">KERNELSPACE</text>
      <text x="794.3311" xml:space="preserve" y="628.4995" clip-path="url(#clipPath2)" stroke="none">HARDWARE</text>
    </g>
    <g text-rendering="geometricPrecision" stroke-miterlimit="1.45" stroke-width="3" shape-rendering="geometricPrecision" transform="matrix(1,0,0,1,-209,-206)" stroke-linecap="butt">
      <path fill="none" d="M399.5 490.9844 L399.5 454.9978" clip-path="url(#clipPath2)"/>
      <path d="M399.5 500.9844 L405.75 485.9844 L399.5 489.7344 L393.25 485.9844 Z" clip-path="url(#clipPath2)" stroke="none"/>
      <path d="M399.5 444.9978 L393.25 459.9978 L399.5 456.2478 L405.75 459.9978 Z" clip-path="url(#clipPath2)" stroke="none"/>
      <path fill="none" d="M555.692 451.5675 L604.8157 494.4392" clip-path="url(#clipPath2)"/>
      <path d="M548.1577 444.9922 L555.3495 459.5641 L556.6337 452.3895 L563.5687 450.1463 Z" clip-path="url(#clipPath2)" stroke="none"/>
      <path d="M612.35 501.0146 L605.1582 486.4426 L603.874 493.6173 L596.939 495.8604 Z" clip-path="url(#clipPath2)" stroke="none"/>
    </g>
    <g stroke-linecap="butt" transform="matrix(1,0,0,1,-209,-206)" fill="rgb(153,153,153)" text-rendering="geometricPrecision" shape-rendering="geometricPrecision" stroke-dasharray="6,2" stroke="rgb(153,153,153)" stroke-miterlimit="1.45">
      <path fill="none" d="M546.1665 398.7577 L609.618 319.1501" clip-path="url(#clipPath2)"/>
      <path d="M541.1802 405.0136 L552.5696 398.7462 L546.7898 397.9757 L544.7497 392.5133 Z" clip-path="url(#clipPath2)" stroke="none"/>
      <path d="M614.6043 312.8941 L603.2148 319.1616 L608.9947 319.932 L611.0348 325.3945 Z" clip-path="url(#clipPath2)" stroke="none"/>
    </g>
    <g text-rendering="geometricPrecision" stroke-miterlimit="1.45" stroke-width="3" shape-rendering="geometricPrecision" transform="matrix(1,0,0,1,-209,-206)" stroke-linecap="butt">
      <path fill="none" d="M635.25 455.0156 L635.25 491.0022" clip-path="url(#clipPath2)"/>
      <path d="M635.25 445.0156 L629 460.0156 L635.25 456.2656 L641.5 460.0156 Z" clip-path="url(#clipPath2)" stroke="none"/>
      <path d="M635.25 501.0022 L641.5 486.0022 L635.25 489.7522 L629 486.0022 Z" clip-path="url(#clipPath2)" stroke="none"/>
    </g>
    <g stroke-linecap="butt" transform="matrix(1,0,0,1,-209,-206)" fill="rgb(153,153,153)" text-rendering="geometricPrecision" shape-rendering="geometricPrecision" stroke-dasharray="6,2" stroke="rgb(153,153,153)" stroke-miterlimit="1.45">
      <path fill="none" d="M637.2109 397.0332 L642.5509 320.8745" clip-path="url(#clipPath2)"/>
      <path d="M636.6514 405.0136 L642.4785 393.3928 L637.2809 396.0357 L632.503 392.6933 Z" clip-path="url(#clipPath2)" stroke="none"/>
      <path d="M643.1105 312.8941 L637.2834 324.515 L642.481 321.8721 L647.2589 325.2145 Z" clip-path="url(#clipPath2)" stroke="none"/>
    </g>
    <g text-rendering="geometricPrecision" stroke-miterlimit="1.45" stroke-width="3" shape-rendering="geometricPrecision" transform="matrix(1,0,0,1,-209,-206)" stroke-linecap="butt">
      <path fill="none" d="M714.808 451.5675 L665.6843 494.4392" clip-path="url(#clipPath2)"/>
      <path d="M722.3423 444.9922 L706.9313 450.1463 L713.8663 452.3895 L715.1505 459.5641 Z" clip-path="url(#clipPath2)" stroke="none"/>
      <path d="M658.15 501.0146 L673.561 495.8604 L666.626 493.6173 L665.3418 486.4426 Z" clip-path="url(#clipPath2)" stroke="none"/>
    </g>
    <g stroke-linecap="butt" transform="matrix(1,0,0,1,-209,-206)" fill="rgb(153,153,153)" text-rendering="geometricPrecision" shape-rendering="geometricPrecision" stroke-dasharray="6,2" stroke="rgb(153,153,153)" stroke-miterlimit="1.45">
      <path fill="none" d="M727.7307 398.327 L676.0085 319.5807" clip-path="url(#clipPath2)"/>
      <path d="M732.1226 405.0136 L729.7139 392.2387 L727.1816 397.4912 L721.3555 397.7286 Z" clip-path="url(#clipPath2)" stroke="none"/>
      <path d="M671.6166 312.8941 L674.0254 325.669 L676.5576 320.4166 L682.3837 320.1791 Z" clip-path="url(#clipPath2)" stroke="none"/>
    </g>
    <g text-rendering="geometricPrecision" stroke-miterlimit="1.45" stroke-width="3" shape-rendering="geometricPrecision" transform="matrix(1,0,0,1,-209,-206)" stroke-linecap="butt">
      <path fill="none" d="M399.5 316.9849 L399.5 394.9755" clip-path="url(#clipPath2)"/>
      <path d="M399.5 306.9849 L393.25 321.9849 L399.5 318.2349 L405.75 321.9849 Z" clip-path="url(#clipPath2)" stroke="none"/>
      <path d="M399.5 404.9755 L405.75 389.9755 L399.5 393.7255 L393.25 389.9755 Z" clip-path="url(#clipPath2)" stroke="none"/>
    </g>
    <g text-rendering="geometricPrecision" stroke-miterlimit="1.45" shape-rendering="geometricPrecision" font-family="sans-serif" transform="matrix(0,-1,1,0,161.9494,191.6676)" stroke-linecap="butt">
      <text x="2" xml:space="preserve" y="14.0645" clip-path="url(#clipPath3)" stroke="none">Raw Frame IO</text>
    </g>
    <g stroke-linecap="butt" transform="matrix(1,0,0,1,-209,-206)" fill="rgb(153,153,153)" text-rendering="geometricPrecision" shape-rendering="geometricPrecision" stroke-dasharray="6,2" stroke="rgb(153,153,153)" stroke-miterlimit="1.45">
      <path fill="none" d="M435.8427 313.232 L504.2343 398.7283" clip-path="url(#clipPath2)"/>
      <path d="M430.8454 306.9849 L434.4369 319.4789 L436.4674 314.0129 L442.2458 313.2322 Z" clip-path="url(#clipPath2)" stroke="none"/>
      <path d="M509.2316 404.9755 L505.6401 392.4814 L503.6096 397.9474 L497.8312 398.7281 Z" clip-path="url(#clipPath2)" stroke="none"/>
    </g>
    <g text-rendering="geometricPrecision" stroke-miterlimit="1.45" shape-rendering="geometricPrecision" font-family="sans-serif" transform="matrix(1,0,0,1,-209,-206)" stroke-linecap="butt">
      <text x="511.338" xml:space="preserve" y="369.2211" clip-path="url(#clipPath2)" stroke="none">IP/TCP/UDP Connections</text>
    </g>
    <g stroke-linecap="butt" transform="matrix(1,0,0,1,-209,-206)" fill="rgb(153,153,153)" text-rendering="geometricPrecision" shape-rendering="geometricPrecision" stroke-dasharray="6,2" stroke="rgb(153,153,153)" stroke-miterlimit="1.45">
      <path fill="none" d="M464.9496 311.4423 L598.5901 400.5549" clip-path="url(#clipPath2)"/>
      <path d="M458.2936 307.0041 L465.5037 317.8214 L465.7816 311.9971 L471.0515 309.5014 Z" clip-path="url(#clipPath2)" stroke="none"/>
      <path d="M605.246 404.9931 L598.036 394.1758 L597.7581 400.0001 L592.4882 402.4957 Z" clip-path="url(#clipPath2)" stroke="none"/>
      <path fill="none" d="M477.5617 303.2918 L705.375 406.8703" clip-path="url(#clipPath2)"/>
      <path d="M470.2791 299.9807 L479.1336 309.4991 L478.472 303.7057 L483.2725 300.3958 Z" clip-path="url(#clipPath2)" stroke="none"/>
      <path d="M712.6576 410.1814 L703.8031 400.6631 L704.4647 406.4564 L699.6642 409.7664 Z" clip-path="url(#clipPath2)" stroke="none"/>
    </g>
    <g text-rendering="geometricPrecision" stroke-miterlimit="1.45" stroke-width="3" shape-rendering="geometricPrecision" transform="matrix(1,0,0,1,-209,-206)" stroke-linecap="butt">
      <path fill="none" d="M449.4727 521 L467.3969 521" clip-path="url(#clipPath2)"/>
      <path d="M439.4727 521 L454.4727 527.25 L450.7227 521 L454.4727 514.75 Z" clip-path="url(#clipPath2)" stroke="none"/>
      <path d="M477.3969 521 L462.3969 514.75 L466.1469 521 L462.3969 527.25 Z" clip-path="url(#clipPath2)" stroke="none"/>
      <path fill="none" d="M567.3478 521 L585.2719 521" clip-path="url(#clipPath2)"/>
      <path d="M557.3478 521 L572.3478 527.25 L568.5978 521 L572.3478 514.75 Z" clip-path="url(#clipPath2)" stroke="none"/>
      <path d="M595.2719 521 L580.2719 514.75 L584.0219 521 L580.2719 527.25 Z" clip-path="url(#clipPath2)" stroke="none"/>
    </g>
    <g stroke-linecap="butt" transform="matrix(1,0,0,1,-209,-206)" fill="rgb(153,153,153)" text-rendering="geometricPrecision" shape-rendering="geometricPrecision" stroke-dasharray="6,2" stroke="rgb(153,153,153)" stroke-miterlimit="1.45">
      <path fill="none" d="M478.3073 267.8 L549.3233 267.8" clip-path="url(#clipPath2)"/>
      <path d="M470.3073 267.8 L482.3073 272.8 L479.3073 267.8 L482.3073 262.8 Z" clip-path="url(#clipPath2)" stroke="none"/>
      <path d="M557.3233 267.8 L545.3233 262.8 L548.3233 267.8 L545.3233 272.8 Z" clip-path="url(#clipPath2)" stroke="none"/>
    </g>
    <g text-rendering="geometricPrecision" stroke-miterlimit="1.45" shape-rendering="geometricPrecision" font-family="sans-serif" transform="matrix(1,0,0,1,-209,-206)" stroke-linecap="butt">
      <text x="483.6012" xml:space="preserve" y="242.598" clip-path="url(#clipPath2)" stroke="none">pipe/socket</text>
      <text x="481.9312" xml:space="preserve" y="257.2992" clip-path="url(#clipPath2)" stroke="none">connections</text>
      <path fill="none" d="M399.5 550.9691 L399.5 593.0138" stroke-width="3" clip-path="url(#clipPath2)"/>
      <path d="M399.5 540.9691 L393.25 555.9691 L399.5 552.2191 L405.75 555.9691 Z" stroke-width="3" clip-path="url(#clipPath2)" stroke="none"/>
      <path d="M399.5 603.0138 L405.75 588.0138 L399.5 591.7638 L393.25 588.0138 Z" stroke-width="3" clip-path="url(#clipPath2)" stroke="none"/>
      <path fill="none" d="M365.6419 313.4083 L302.4341 398.552" clip-path="url(#clipPath2)"/>
      <path d="M370.4105 306.9849 L359.243 313.6397 L365.0458 314.2113 L367.2723 319.6004 Z" clip-path="url(#clipPath2)" stroke="none"/>
      <path d="M297.6656 404.9755 L308.8331 398.3206 L303.0302 397.7491 L300.8037 392.3599 Z" clip-path="url(#clipPath2)" stroke="none"/>
      <path fill="none" d="M282.8 445.0156 L282.8 493.0022" clip-path="url(#clipPath2)"/>
      <path d="M282.8 501.0022 L287.8 489.0022 L282.8 492.0022 L277.8 489.0022 Z" clip-path="url(#clipPath2)" stroke="none"/>
      <path fill="none" d="M282.8 548.9758 L282.8 594.9847" clip-path="url(#clipPath2)"/>
      <path d="M282.8 540.9758 L277.8 552.9758 L282.8 549.9758 L287.8 552.9758 Z" clip-path="url(#clipPath2)" stroke="none"/>
      <path d="M282.8 602.9847 L287.8 590.9847 L282.8 593.9847 L277.8 590.9847 Z" clip-path="url(#clipPath2)" stroke="none"/>
    </g>
  </g>
</svg>
